<svg width="512" height="512" viewBox="0 0 512 512" fill="none" xmlns="http://www.w3.org/2000/svg">
  <rect width="512" height="512" rx="256" fill="#FF6268"/>
  <path d="M154 146C216 126 308 129 360 170C384 188 398 214 402 252C406 294 398 333 371 364C333 407 260 419 195 404C167 398 150 390 132 372C110 351 101 323 98 286C95 242 104 205 123 180C131 168 141 155 154 146Z" fill="#000000"/>
  <path d="M168 184C214 171 286 172 328 195C349 207 359 229 361 257C363 290 354 315 334 331C301 357 232 362 184 347C159 339 149 326 145 301C141 279 142 235 149 216C153 204 158 193 168 184Z" fill="#FF6268"/>
  <rect x="175" y="181" width="168" height="150" rx="34" fill="#000000"/>
  <path d="M246 220L297 256L246 292V220Z" fill="#FF6268"/>
</svg>
